<?xml version="1.0" encoding="UTF-8"?>
<!DOCTYPE svg PUBLIC "-//W3C//DTD SVG 1.1//EN" "http://www.w3.org/Graphics/SVG/1.1/DTD/svg11.dtd">
<!-- Creator: CorelDRAW X7 -->
<svg xmlns="http://www.w3.org/2000/svg" xml:space="preserve" width="45.8129mm" height="31.8809mm" version="1.1" style="shape-rendering:geometricPrecision; text-rendering:geometricPrecision; image-rendering:optimizeQuality; fill-rule:evenodd; clip-rule:evenodd"
viewBox="0 0 3276 2280"
 xmlns:xlink="http://www.w3.org/1999/xlink">
 <defs>
  <style type="text/css">
   <![CDATA[
    .fil0 {fill:#EF7F1A}
   ]]>
  </style>
 </defs>
 <g id="Layer_x0020_1">
  <metadata id="CorelCorpID_0Corel-Layer"/>
  <path class="fil0" d="M538 0l2201 0c103,0 186,84 186,187l0 1518 -85 0 0 -1328 -2403 0 0 1328 -86 0 0 -1518c0,-103 84,-187 187,-187zm1482 1932l0 27c0,103 -84,187 -187,187l-390 0c-103,0 -187,-84 -187,-187l0 -27 -1170 0 0 161c0,56 45,101 101,101l2903 0c55,0 100,-45 100,-101l0 -161 -1170 0zm-678 0l0 27c0,55 46,101 101,101l390 0c56,0 101,-46 101,-101l0 -27 -592 0zm-1256 -85l1170 0 86 0 592 0 86 0 1170 0 43 0 43 0 0 43 0 203c0,103 -84,187 -186,187l-2903 0c-103,0 -187,-84 -187,-187l0 -203 0 -43 43 0 43 0zm2700 141c23,0 42,19 42,42 0,23 -19,42 -42,42 -23,0 -42,-19 -42,-42 0,-23 19,-42 42,-42zm143 0c23,0 42,19 42,42 0,23 -19,42 -42,42 -23,0 -41,-19 -41,-42 0,-23 18,-42 41,-42zm144 0c23,0 42,19 42,42 0,23 -19,42 -42,42 -23,0 -42,-19 -42,-42 0,-23 19,-42 42,-42zm-1435 -1823c23,0 42,19 42,42 0,23 -19,42 -42,42 -23,0 -42,-19 -42,-42 0,-23 19,-42 42,-42zm1202 126l0 -104c0,-56 -46,-101 -101,-101l-2201 0c-56,0 -101,45 -101,101l0 104 2403 0z"/>
 </g>
</svg>
