<?xml version="1.0" encoding="UTF-8"?>
<!DOCTYPE svg PUBLIC "-//W3C//DTD SVG 1.1//EN" "http://www.w3.org/Graphics/SVG/1.1/DTD/svg11.dtd">
<!-- Creator: CorelDRAW X7 -->
<svg xmlns="http://www.w3.org/2000/svg" xml:space="preserve" width="32.0313mm" height="36.3991mm" version="1.1" style="shape-rendering:geometricPrecision; text-rendering:geometricPrecision; image-rendering:optimizeQuality; fill-rule:evenodd; clip-rule:evenodd"
viewBox="0 0 371 422"
 xmlns:xlink="http://www.w3.org/1999/xlink">
 <defs>
  <style type="text/css">
   <![CDATA[
    .fil0 {fill:#EF7F1A}
   ]]>
  </style>
 </defs>
 <g id="Layer_x0020_1">
  <metadata id="CorelCorpID_0Corel-Layer"/>
  <path class="fil0" d="M312 186l-25 -23c-1,0 -1,-1 -1,-1 0,-1 0,-2 1,-2l2 -2c3,-3 3,-7 0,-10l-30 -27c0,0 -1,-1 -1,-1 0,0 0,0 0,0 -3,-3 -7,-3 -10,0l-6 5c-1,1 -2,1 -3,0l-22 -21c-1,0 -1,-1 -2,-1 0,0 0,0 0,0 -3,-3 -7,-3 -10,-1l-20 19c0,1 -1,1 -2,1 -3,-2 -6,-3 -9,-3 -1,0 -1,-1 -1,-1 0,0 -1,0 -1,-1l-31 -24c0,0 -1,-1 0,-2 2,-25 1,-54 -17,-73 -21,-22 -55,-20 -82,-15 -3,1 -4,3 -5,5 -1,3 0,5 2,7l41 41c1,1 1,1 1,2 0,1 0,1 -1,2l-20 19c-1,1 -3,1 -4,0l-40 -38c-2,-2 -5,-3 -7,-2 -3,1 -4,3 -5,5 -6,28 -8,62 13,83 16,17 41,21 63,20 1,0 1,0 2,0l9 10c0,0 0,1 0,1 -1,9 0,18 0,27 1,25 2,33 -11,54 -1,1 -1,1 -2,1 -1,0 -1,0 -2,0l-5 -6c-3,-2 -7,-2 -10,0l-52 52c-1,1 -2,3 -2,5 0,2 1,3 2,5l126 124c2,2 5,2 7,2 1,-1 1,-1 1,-1 1,0 3,0 4,-2l50 -50c3,-2 3,-7 0,-10 0,0 -1,0 -1,-1 -1,0 -1,0 -1,0l0 0 -5 -6c-1,0 -1,-2 0,-3 1,-1 2,-2 3,-4 2,-1 4,-3 5,-5 1,0 1,0 2,-1 2,0 4,1 6,1 4,0 8,1 12,0 13,-1 25,-8 35,-15 1,-1 2,-1 3,0l44 44c21,21 50,14 64,-11 5,-8 8,-17 7,-26 0,-10 -4,-18 -11,-25l-45 -45c-1,0 -1,-1 -1,-1 0,-1 0,-1 1,-2l24 -24c3,-3 3,-7 0,-10l-28 -25c0,-1 0,-1 0,-2 0,0 0,-1 0,-1l1 -1c3,-3 3,-7 0,-10zm-99 -37l-16 -16c-1,-1 -1,-1 -1,-2 0,-1 0,-1 1,-2l12 -11c1,-1 2,-1 3,0l16 16c1,0 1,1 1,1 0,1 0,1 -1,2l-12 12c-1,1 -2,1 -3,0zm-145 102l112 112c1,0 1,1 1,2 0,0 0,1 -1,1l-38 38c0,1 -2,1 -3,0l-114 -112c0,0 0,-1 0,-1 0,-1 0,-1 0,-2l39 -38c1,-1 3,-1 4,0zm190 -82l-11 11c-1,0 -3,0 -3,-1l-18 -17c0,0 0,-1 0,-1 0,-1 0,-2 0,-2l25 -24c1,0 2,0 3,0l18 16c1,1 1,1 1,2 0,0 0,1 -1,1l-14 15zm10 9l6 -5c1,-1 2,-1 3,0l19 16c0,1 0,1 0,2 0,0 0,1 0,2l-40 39c-1,1 -2,1 -3,0l-9 -8c-1,-1 -1,-1 -1,-2 0,-1 1,-2 1,-2 4,-2 8,-4 10,-8 4,-6 4,-12 1,-18 -1,-1 0,-2 0,-3l13 -13zm-25 67c-3,3 -3,7 0,10 0,0 0,0 0,0 1,1 1,1 2,2l31 31c3,2 7,2 10,0l16 -16c0,-1 2,-1 3,0l45 45c16,16 3,46 -18,50 -8,2 -16,-2 -22,-8l-115 -116c-1,0 -1,-1 -1,-2 2,-7 2,-14 2,-21 0,-1 1,-1 1,-2 1,0 2,0 3,0 7,4 14,6 22,6 1,0 1,0 2,0l18 18c1,1 1,2 1,3zm36 26l-20 -19c0,0 0,-1 0,-2 0,0 0,-1 0,-1l40 -38c1,-1 3,-1 4,0l19 17c1,1 1,1 1,2 0,1 0,1 -1,2l-39 39c-1,1 -3,1 -4,0zm-216 -257c17,-1 38,0 51,14 15,16 15,45 12,66 0,3 1,5 3,7l15 12c1,1 1,2 1,3 0,0 -1,1 -2,1 -2,0 -4,0 -5,0 -16,1 -18,0 -30,11 -4,3 -8,7 -11,12 0,0 -1,1 -1,1 -1,0 -2,-1 -2,-1l-5 -5c-2,-2 -4,-3 -6,-2 -50,4 -74,-19 -68,-69 0,-1 0,-2 1,-2 1,0 2,0 3,1l34 32c3,2 7,2 10,0l34 -32c1,-1 2,-3 2,-5 0,-2 -1,-4 -2,-5l-35 -35c-1,0 -1,-1 -1,-2 0,-1 1,-2 2,-2zm113 325l-86 -86c-1,-1 -1,-2 -1,-3 7,-10 13,-22 15,-34 2,-10 1,-21 1,-31 0,-10 -1,-25 2,-34 2,-5 6,-9 10,-13 10,-8 10,-6 22,-7 14,-1 34,-3 45,8l53 54c3,2 8,8 5,12 -1,1 -3,2 -5,3 -17,3 -27,3 -40,-9l-23 -23c-3,-3 -7,-3 -10,0 -3,2 -3,7 0,9l16 16c0,0 0,1 0,1 5,30 2,42 -18,65 -2,3 -2,7 1,10 3,2 7,2 9,-1 5,-5 10,-11 14,-17 0,-1 1,-1 2,-2 0,0 1,1 2,1l53 53c1,1 1,2 1,2 0,1 -1,2 -1,2 -8,5 -17,11 -26,11 -7,1 -14,-1 -20,0 -3,0 -6,2 -8,4 -3,3 -6,6 -9,9 -1,1 -1,1 -2,1 -1,0 -1,0 -2,-1zm-111 -57c-4,0 -7,3 -7,7 0,4 3,7 7,7 4,0 7,-3 7,-7 0,-4 -3,-7 -7,-7zm259 43c-4,0 -7,3 -7,7 0,4 3,7 7,7 4,0 7,-3 7,-7 0,-4 -3,-7 -7,-7z"/>
 </g>
</svg>
