<?xml version="1.0" encoding="UTF-8"?>
<!DOCTYPE svg PUBLIC "-//W3C//DTD SVG 1.1//EN" "http://www.w3.org/Graphics/SVG/1.1/DTD/svg11.dtd">
<!-- Creator: CorelDRAW X7 -->
<svg xmlns="http://www.w3.org/2000/svg" xml:space="preserve" width="37.3966mm" height="35.1815mm" version="1.1" style="shape-rendering:geometricPrecision; text-rendering:geometricPrecision; image-rendering:optimizeQuality; fill-rule:evenodd; clip-rule:evenodd"
viewBox="0 0 801 753"
 xmlns:xlink="http://www.w3.org/1999/xlink">
 <defs>
  <style type="text/css">
   <![CDATA[
    .fil0 {fill:#EF7F1A}
   ]]>
  </style>
 </defs>
 <g id="Layer_x0020_1">
  <metadata id="CorelCorpID_0Corel-Layer"/>
  <path class="fil0" d="M673 115l-45 0c-3,0 -5,-2 -5,-4l0 -94c0,-1 0,-1 0,-2 0,0 0,0 0,-1 1,-4 -1,-8 -3,-10 -5,-5 -14,-5 -19,0l-109 110c-1,1 -2,1 -3,1l-362 0c-2,0 -4,-2 -4,-4l0 -36c0,-5 -3,-10 -8,-12 -62,-25 -113,9 -113,76l-2 398c0,0 0,1 0,1l0 1c0,19 8,37 20,51 20,21 49,29 78,29l605 0c28,0 57,-8 77,-29 13,-14 20,-32 21,-51l0 -1c0,0 0,-1 0,-2l-2 -397c0,-67 -51,-101 -113,-76 -5,2 -8,7 -8,12l0 36c0,2 -2,4 -5,4zm5 359c0,2 0,3 0,5 1,7 8,11 15,10 19,-4 41,-4 59,6 12,8 20,20 22,35 1,2 1,4 1,7l0 1c0,13 -5,25 -14,34 -15,16 -37,22 -58,22l-605 0c-21,0 -44,-6 -59,-22 -8,-9 -13,-21 -13,-34l0 -1c0,-3 0,-5 0,-7 3,-15 11,-27 23,-35 17,-10 39,-10 59,-6 6,1 13,-3 15,-10 0,-2 0,-3 0,-5 0,0 0,0 0,0 0,-1 0,-1 0,-1l0 -328c0,-2 2,-4 4,-4l328 0c2,0 4,1 4,3 1,1 1,3 -1,4l-302 306c-1,1 -1,1 -1,1 -3,1 -5,4 -6,6 0,0 0,1 0,1 -3,5 -2,11 2,15 4,4 10,5 15,3 1,-1 1,-1 2,-1l443 0c7,0 12,-6 12,-13l0 -321c0,-2 2,-4 5,-4l45 0c3,0 5,2 5,4l0 328c0,0 0,0 0,1 0,0 0,0 0,0zm29 -391c42,-11 66,15 66,56l2 333c0,2 -1,3 -3,4 -1,0 -3,0 -4,-1 -1,0 -2,-1 -3,-1 -17,-11 -37,-15 -57,-13 -1,0 -2,-1 -3,-2 -1,0 -2,-1 -2,-3l0 -369c0,-1 2,-3 4,-4zm-614 378c-20,-2 -40,2 -58,13 -1,0 -1,1 -2,1 -2,1 -3,1 -5,1 -1,-1 -2,-2 -2,-4l1 -333c1,-41 25,-67 67,-56 2,1 3,3 3,4l0 369c0,2 0,3 -1,3 -1,1 -2,2 -3,2zm182 -55c-7,0 -13,6 -13,13l0 30c0,2 -2,4 -4,4l-55 0c-2,0 -3,-1 -4,-2 -1,-2 0,-4 1,-5l390 -395c2,-1 3,-1 5,0 2,0 3,2 3,3l0 395c0,2 -2,4 -5,4l-45 0c-2,0 -4,-2 -4,-4l0 -30c0,-7 -6,-13 -13,-13 -7,0 -13,6 -13,13l0 30c0,2 -1,4 -4,4l-51 0c-2,0 -4,-2 -4,-4l0 -30c0,-7 -6,-13 -13,-13 -7,0 -13,6 -13,13l0 30c0,2 -2,4 -4,4l-52 0c-2,0 -4,-2 -4,-4l0 -30c0,-7 -6,-13 -13,-13 -7,0 -13,6 -13,13l0 30c0,2 -2,4 -4,4l-51 0c-3,0 -4,-2 -4,-4l0 -30c0,-7 -6,-13 -13,-13zm108 -31c1,0 2,0 4,0l139 0c7,0 13,-5 13,-12l0 -131c0,-1 0,-1 0,-2 0,0 0,-1 0,-1 0,-4 -1,-8 -4,-11 -5,-5 -13,-5 -18,0l-142 135c-5,5 -5,13 -1,18 3,2 5,3 8,4 1,0 1,0 1,0zm130 -108l0 78c0,3 -2,5 -4,5l-83 0c-2,0 -3,-1 -4,-3 -1,-2 0,-3 1,-5l83 -78c1,-2 3,-2 4,-1 2,1 3,2 3,4zm186 382c-2,-2 -5,-3 -9,-3l-649 0c-26,0 -31,32 -31,52 0,20 6,55 32,55l50 0c0,0 0,0 0,0 1,0 1,0 2,0l601 0c3,0 5,0 7,-2l68 -39c4,-2 6,-6 6,-11 0,-5 -2,-9 -6,-11l-70 -41c-1,0 -1,0 -1,0zm-13 74l0 -45c0,-1 1,-2 2,-3 1,-1 3,-1 4,0l39 22c2,1 2,2 2,4 0,2 0,3 -2,4l-38 22c-1,0 -2,0 -2,0l-1 0c-2,0 -4,-1 -4,-4zm-579 0l0 -47c0,-3 1,-5 4,-5l545 0c1,0 2,1 3,2 1,1 1,2 1,3 0,0 0,0 0,1l0 46c0,3 -2,4 -4,4l-545 0c-3,0 -4,-1 -4,-4zm-30 4l-33 0c-1,0 -3,0 -3,-2 -4,-6 -6,-20 -6,-27 0,-7 1,-19 5,-25 1,-1 2,-2 4,-2l33 0c2,0 4,2 4,5l0 47c0,2 -2,4 -4,4z"/>
 </g>
</svg>
