<?xml version="1.0" encoding="UTF-8"?>
<!DOCTYPE svg PUBLIC "-//W3C//DTD SVG 1.1//EN" "http://www.w3.org/Graphics/SVG/1.1/DTD/svg11.dtd">
<!-- Creator: CorelDRAW X7 -->
<svg xmlns="http://www.w3.org/2000/svg" xml:space="preserve" width="44.318mm" height="31.1431mm" version="1.1" style="shape-rendering:geometricPrecision; text-rendering:geometricPrecision; image-rendering:optimizeQuality; fill-rule:evenodd; clip-rule:evenodd"
viewBox="0 0 1125 790"
 xmlns:xlink="http://www.w3.org/1999/xlink">
 <defs>
  <style type="text/css">
   <![CDATA[
    .fil0 {fill:#EF7F1A}
   ]]>
  </style>
 </defs>
 <g id="Layer_x0020_1">
  <metadata id="CorelCorpID_0Corel-Layer"/>
  <path class="fil0" d="M530 101l-312 -77c-6,-2 -12,1 -16,6l-199 302c-5,7 -3,17 4,22 1,0 3,1 4,2 1,0 1,0 1,0l108 66c-13,-16 -23,-33 -29,-52 -1,-1 -1,-2 -1,-2l-48 -30c-2,-1 -2,-2 -3,-3 0,-1 0,-3 1,-4l179 -272c2,-2 4,-3 6,-2l306 76c4,1 8,0 12,-2l142 -93c2,-1 5,-1 7,2l103 138c9,-5 18,-9 29,-13l-119 -159c-5,-6 -14,-8 -20,-4l-151 98c-2,1 -3,1 -4,1zm-159 187c-8,0 -15,-7 -15,-16 0,0 0,-1 0,-2 1,-1 0,-1 0,-2 -11,-33 -33,-57 -67,-67 -27,-9 -57,-5 -84,5 -21,9 -40,22 -54,40 -1,2 -1,4 0,6 0,1 2,3 4,3l77 1c9,0 15,7 15,15l-1 45 0 1 0 0 0 45c-1,9 -7,15 -16,15l-77 -1c-2,0 -4,1 -5,3 0,2 0,4 1,5 13,19 32,33 53,42 26,12 56,16 84,8 37,-9 60,-37 71,-72 2,-4 4,-7 7,-9 0,0 1,0 1,0 2,-2 5,-3 8,-3l19 1 346 3 18 0c3,0 6,1 8,3 0,0 0,0 0,0 4,2 6,5 7,9 10,35 33,64 69,75 28,8 58,5 84,-6 21,-8 41,-22 55,-40 1,-2 1,-4 0,-5 -1,-2 -2,-3 -4,-3l-77 -2c-9,0 -16,-7 -15,-15l0 -45 0 0 0 -1 1 -45c0,-8 7,-15 16,-15l77 1c2,0 3,-1 4,-3 1,-1 1,-3 0,-5 -13,-18 -32,-33 -53,-42 -26,-11 -56,-15 -84,-8 -34,9 -56,33 -69,65 0,1 0,1 0,2 0,1 0,2 0,3 0,8 -7,15 -15,15l-21 -1 -346 -3 -22 0zm366 96l-345 -3 -6 0c-2,0 -4,1 -5,3 -16,40 -46,69 -88,80 -74,19 -164,-25 -188,-99 -2,-5 -1,-10 2,-14 3,-4 8,-6 13,-6l90 2c3,0 5,-3 5,-5l1 -25 0 -1 0 0 0 -25c0,-3 -2,-5 -5,-5l-90 -2c-5,0 -10,-2 -13,-6 -2,-4 -3,-9 -1,-14 27,-73 118,-115 191,-93 42,13 71,43 86,83 1,2 2,4 4,4l6 0 345 3 4 0c2,0 4,-1 5,-3 16,-40 46,-69 88,-81 75,-19 164,25 189,99 1,5 0,10 -3,14 -3,4 -7,6 -12,6l-91 -1c-2,0 -5,2 -5,5l0 24 0 1 0 1 -1 24c0,3 3,5 5,5l91 2c5,0 9,2 12,6 3,5 4,9 2,14 -27,73 -118,115 -191,93 -42,-13 -71,-43 -86,-83 -1,-2 -2,-3 -4,-3l-5 0zm-364 44l48 54c2,1 2,3 1,5l-53 165c-2,4 -1,8 2,12 2,4 6,7 11,7l86 11c6,0 11,-2 14,-6l74 -95c1,-2 4,-3 6,-2l117 49c1,0 2,2 3,3 0,2 0,4 -2,5l-40 39c-4,3 -6,9 -4,14 1,6 5,10 11,11l67 17c2,0 3,1 4,3l22 60c2,5 5,7 9,9 4,2 8,2 12,0l183 -84c6,-3 10,-9 9,-16l-10 -65c-1,-4 -3,-7 -7,-9 -3,-3 -7,-4 -11,-3l-84 14c-1,1 -3,0 -4,-1l-19 -19c-1,-1 -2,-3 -1,-4 0,-2 1,-3 2,-4l296 -195c4,-2 7,-7 7,-12l3 -153c0,-7 -5,-13 -13,-15l-121 -21c13,10 24,23 32,36l67 12c2,1 4,3 4,5l-3 125c0,1 0,3 -2,4l-104 68c-7,6 -15,11 -23,16l-181 118c-4,3 -6,7 -6,11 -1,5 1,9 4,13l44 44c4,3 8,5 13,4l74 -13c1,0 3,0 4,1 1,1 2,2 2,4l4 29c1,2 0,4 -3,5l-149 68c-1,1 -3,1 -4,0 -1,0 -2,-1 -3,-3l-19 -50c-2,-5 -5,-8 -10,-9l-42 -10c-2,-1 -3,-2 -4,-4 0,-2 0,-4 2,-5l36 -35c4,-3 5,-8 4,-13 -1,-6 -4,-10 -9,-12l-160 -66c-6,-2 -13,0 -17,5l-77 98c-1,2 -3,2 -5,2l-50 -6c-2,0 -3,-1 -4,-2 -1,-2 -1,-3 0,-5l49 -152c2,-5 1,-11 -3,-15l-62 -68c-5,9 -10,18 -17,26z"/>
 </g>
</svg>
