<?xml version="1.0" encoding="UTF-8"?>
<!DOCTYPE svg PUBLIC "-//W3C//DTD SVG 1.1//EN" "http://www.w3.org/Graphics/SVG/1.1/DTD/svg11.dtd">
<!-- Creator: CorelDRAW X7 -->
<svg xmlns="http://www.w3.org/2000/svg" xml:space="preserve" width="36.0022mm" height="34.9646mm" version="1.1" style="shape-rendering:geometricPrecision; text-rendering:geometricPrecision; image-rendering:optimizeQuality; fill-rule:evenodd; clip-rule:evenodd"
viewBox="0 0 684 664"
 xmlns:xlink="http://www.w3.org/1999/xlink">
 <defs>
  <style type="text/css">
   <![CDATA[
    .fil0 {fill:#EF7F1A}
   ]]>
  </style>
 </defs>
 <g id="Layer_x0020_1">
  <metadata id="CorelCorpID_0Corel-Layer"/>
  <path class="fil0" d="M50 0l584 0c28,0 50,22 50,50l0 435c0,28 -22,50 -50,50l-584 0c-28,0 -50,-22 -50,-50l0 -435c0,-28 22,-50 50,-50zm353 559l0 41c0,20 14,37 35,40 2,0 4,0 5,1l59 0c6,0 11,6 11,12 0,6 -5,11 -11,11l-320 0c-6,0 -11,-5 -11,-11 0,-6 5,-12 11,-12l59 0c1,-1 3,-1 5,-1 21,-3 35,-20 35,-40l0 -41c0,-6 5,-11 11,-11 6,0 11,5 11,11l0 41c0,16 -5,30 -15,41l108 0c-10,-11 -16,-25 -16,-41l0 -41c0,-6 6,-11 12,-11 6,0 11,5 11,11zm-103 -81c6,0 11,5 11,12 0,6 -5,11 -11,11 -6,0 -11,-5 -11,-11 0,-7 5,-12 11,-12zm84 0c6,0 11,5 11,12 0,6 -5,11 -11,11 -6,0 -11,-5 -11,-11 0,-7 5,-12 11,-12zm-42 0c6,0 11,5 11,12 0,6 -5,11 -11,11 -6,0 -11,-5 -11,-11 0,-7 5,-12 11,-12zm0 -441c6,0 11,5 11,11 0,6 -5,11 -11,11 -6,0 -11,-5 -11,-11 0,-6 5,-11 11,-11zm-319 409l638 0 0 -353 -638 0 0 353zm638 23l-638 0 0 16c0,15 12,27 27,27l584 0c15,0 27,-12 27,-27l0 -16zm-638 -399l638 0 0 -20c0,-15 -12,-27 -27,-27l-584 0c-15,0 -27,12 -27,27l0 20z"/>
 </g>
</svg>
