<?xml version="1.0" encoding="UTF-8"?>
<!DOCTYPE svg PUBLIC "-//W3C//DTD SVG 1.1//EN" "http://www.w3.org/Graphics/SVG/1.1/DTD/svg11.dtd">
<!-- Creator: CorelDRAW X7 -->
<svg xmlns="http://www.w3.org/2000/svg" xml:space="preserve" width="23.743mm" height="34.8556mm" version="1.1" style="shape-rendering:geometricPrecision; text-rendering:geometricPrecision; image-rendering:optimizeQuality; fill-rule:evenodd; clip-rule:evenodd"
viewBox="0 0 807 1185"
 xmlns:xlink="http://www.w3.org/1999/xlink">
 <defs>
  <style type="text/css">
   <![CDATA[
    .fil0 {fill:#EF7F1A}
   ]]>
  </style>
 </defs>
 <g id="Layer_x0020_1">
  <metadata id="CorelCorpID_0Corel-Layer"/>
  <path class="fil0" d="M807 89l0 1008c0,48 -39,88 -88,88l-630 0c-49,0 -89,-40 -89,-88l0 -1008c0,-49 40,-89 89,-89l630 0c49,0 88,40 88,89zm-521 484c11,0 20,9 20,20 0,11 -9,20 -20,20 -11,0 -19,-9 -19,-20 0,-11 8,-20 19,-20zm235 0c11,0 20,9 20,20 0,11 -9,20 -20,20 -11,0 -20,-9 -20,-20 0,-11 9,-20 20,-20zm-78 0c11,0 20,9 20,20 0,11 -9,20 -20,20 -11,0 -20,-9 -20,-20 0,-11 9,-20 20,-20zm-78 0c11,0 19,9 19,20 0,11 -8,20 -19,20 -11,0 -20,-9 -20,-20 0,-11 9,-20 20,-20zm-2 480l82 0c11,0 20,9 20,20 0,11 -9,21 -20,21l-82 0c-12,0 -21,-10 -21,-21 0,-11 9,-20 21,-20zm41 -976c11,0 20,9 20,20 0,11 -9,20 -20,20 -11,0 -20,-9 -20,-20 0,-11 9,-20 20,-20zm-271 147l0 737 542 0 0 -737 -542 0zm-41 -41l623 0 0 819 -623 0 0 -819zm675 -94l0 1008c0,26 -22,48 -48,48l-630 0c-27,0 -48,-22 -48,-48l0 -1008c0,-27 21,-48 48,-48l630 0c26,0 48,21 48,48z"/>
 </g>
</svg>
