<?xml version="1.0" encoding="UTF-8"?>
<!DOCTYPE svg PUBLIC "-//W3C//DTD SVG 1.1//EN" "http://www.w3.org/Graphics/SVG/1.1/DTD/svg11.dtd">
<!-- Creator: CorelDRAW X7 -->
<svg xmlns="http://www.w3.org/2000/svg" xml:space="preserve" width="12.3976mm" height="20.9703mm" version="1.1" style="shape-rendering:geometricPrecision; text-rendering:geometricPrecision; image-rendering:optimizeQuality; fill-rule:evenodd; clip-rule:evenodd"
viewBox="0 0 90 152"
 xmlns:xlink="http://www.w3.org/1999/xlink">
 <defs>
  <style type="text/css">
   <![CDATA[
    .fil0 {fill:#EF7F1A}
   ]]>
  </style>
 </defs>
 <g id="Layer_x0020_1">
  <metadata id="CorelCorpID_0Corel-Layer"/>
  <path class="fil0" d="M90 19l0 114c0,10 -9,19 -19,19l-52 0c-11,0 -19,-9 -19,-19l0 -114c0,-11 8,-19 19,-19l52 0c10,0 19,8 19,19zm-53 50c2,0 4,2 4,4 0,2 -2,4 -4,4 -3,0 -5,-2 -5,-4 0,-2 2,-4 5,-4zm16 0c2,0 4,2 4,4 0,2 -2,4 -4,4 -2,0 -4,-2 -4,-4 0,-2 2,-4 4,-4zm-17 59l18 0c2,0 4,2 4,4 0,2 -2,4 -4,4l-18 0c-2,0 -4,-2 -4,-4 0,-2 2,-4 4,-4zm9 -111c2,0 4,2 4,4 0,3 -2,5 -4,5 -3,0 -4,-2 -4,-5 0,-2 1,-4 4,-4zm-36 17l72 0 0 -15c0,-6 -5,-10 -10,-10l-52 0c-6,0 -10,4 -10,10l0 15zm72 9l-72 0 0 69 72 0 0 -69zm0 78l-72 0 0 12c0,5 4,10 10,10l52 0c5,0 10,-5 10,-10l0 -12z"/>
 </g>
</svg>
