<?xml version="1.0" encoding="UTF-8"?>
<!DOCTYPE svg PUBLIC "-//W3C//DTD SVG 1.1//EN" "http://www.w3.org/Graphics/SVG/1.1/DTD/svg11.dtd">
<!-- Creator: CorelDRAW X7 -->
<svg xmlns="http://www.w3.org/2000/svg" xml:space="preserve" width="37.6648mm" height="29.3182mm" version="1.1" style="shape-rendering:geometricPrecision; text-rendering:geometricPrecision; image-rendering:optimizeQuality; fill-rule:evenodd; clip-rule:evenodd"
viewBox="0 0 2091 1628"
 xmlns:xlink="http://www.w3.org/1999/xlink">
 <defs>
  <style type="text/css">
   <![CDATA[
    .fil0 {fill:#EF7F1A}
   ]]>
  </style>
 </defs>
 <g id="Layer_x0020_1">
  <metadata id="CorelCorpID_0Corel-Layer"/>
  <path class="fil0" d="M1617 381c-280,-43 -543,150 -585,431 -43,280 150,543 430,586 89,13 179,4 263,-29 5,-2 10,0 13,4l158 216c78,105 253,-24 176,-129l-154 -209c-3,-5 -3,-10 1,-14 69,-76 114,-169 129,-270 43,-281 -150,-543 -431,-586zm253 917l148 201c25,35 -43,85 -68,50l-149 -203c-2,-2 -3,-5 -2,-8 1,-4 3,-6 5,-8 18,-10 35,-22 51,-34 2,-2 5,-3 8,-2 3,0 5,2 7,4zm-263 -851c245,37 413,266 375,510 -37,244 -265,412 -510,375 -244,-38 -412,-266 -374,-510 37,-244 265,-412 509,-375zm179 152l-619 214c-2,6 -3,13 -4,19 -2,18 -4,36 -4,54l379 -131c5,-2 10,0 13,5 52,79 58,126 58,219 0,5 -3,9 -8,11l-375 115c13,20 29,38 46,55l380 -116c14,-4 23,-17 23,-31 1,-109 2,-177 -56,-271 -2,-3 -3,-7 -1,-10 1,-3 3,-6 6,-7l213 -73c-15,-20 -32,-37 -51,-53zm-827 286l-154 53c-4,1 -7,1 -10,-1l-744 -467c-16,-9 -36,-4 -46,11 -10,15 -5,36 11,46l762 478c9,6 18,7 28,3l157 -54c-3,-23 -4,-46 -4,-69zm70 280l-364 111c-3,1 -6,1 -9,-1 -2,-2 -4,-4 -5,-7 -28,-135 -74,-256 -171,-356 -54,-54 -117,-97 -182,-136 -81,-49 -164,-94 -245,-141 -15,-10 -36,-4 -45,12 -10,15 -4,36 12,45 83,49 168,95 250,146 62,37 123,79 173,132 92,100 130,227 152,358 1,10 7,17 15,23 9,5 18,6 27,3l428 -131c-13,-18 -25,-38 -36,-58zm631 -844c35,8 69,18 102,32 30,-14 59,-31 84,-53 69,-60 93,-153 107,-240 1,-10 -2,-20 -8,-27 -1,-1 -1,-1 -1,-1 -8,-12 -23,-17 -37,-13l-624 194c-3,1 -7,0 -9,-2l-336 -206c-8,-5 -18,-6 -27,-3l-867 310c-18,5 -28,24 -22,42 3,8 8,16 16,20l491 274c1,0 1,1 2,1 55,27 119,42 181,32 0,0 0,0 1,-1 2,0 5,0 7,-1l0 0c1,0 1,0 1,0 11,-3 22,-6 32,-10 1,0 1,0 1,0l295 -90c20,-32 44,-63 71,-91l-225 68c-4,2 -9,0 -12,-3 -3,-3 -3,-8 -1,-12 18,-42 26,-89 26,-134 0,-5 3,-10 8,-11l943 -292c4,-2 8,-1 11,2 3,3 4,7 3,11 -12,48 -32,97 -69,131 -28,26 -63,42 -97,56 -16,6 -31,12 -47,17zm-929 285l-26 8c0,0 0,0 -1,0 -48,10 -99,-3 -143,-24 0,0 0,-1 0,-1l-407 -227c-4,-2 -6,-6 -6,-10 1,-5 3,-8 8,-10l755 -270c3,-2 7,-1 10,1l252 155c3,2 5,6 5,10 -1,5 -4,8 -8,10l-306 94c-15,5 -25,19 -23,35 6,78 -14,170 -84,215 -8,6 -16,10 -25,14 -1,0 -1,0 -1,0z"/>
 </g>
</svg>
