<?xml version="1.0" encoding="UTF-8"?>
<!DOCTYPE svg PUBLIC "-//W3C//DTD SVG 1.1//EN" "http://www.w3.org/Graphics/SVG/1.1/DTD/svg11.dtd">
<!-- Creator: CorelDRAW X7 -->
<svg xmlns="http://www.w3.org/2000/svg" xml:space="preserve" width="44.9459mm" height="34.2746mm" version="1.1" style="shape-rendering:geometricPrecision; text-rendering:geometricPrecision; image-rendering:optimizeQuality; fill-rule:evenodd; clip-rule:evenodd"
viewBox="0 0 4413 3365"
 xmlns:xlink="http://www.w3.org/1999/xlink">
 <defs>
  <style type="text/css">
   <![CDATA[
    .fil0 {fill:#EF7F1A}
   ]]>
  </style>
 </defs>
 <g id="Layer_x0020_1">
  <metadata id="CorelCorpID_0Corel-Layer"/>
  <path class="fil0" d="M1882 3180l276 -232c1,-1 1,-1 2,-2 12,-14 29,-22 46,-21 18,-1 35,7 47,21 1,1 1,1 2,2l276 232 0 -920c0,-32 26,-59 58,-59 33,0 59,27 59,59l0 1046c0,24 -12,44 -34,53 -21,10 -44,7 -62,-8l-346 -289 -345 289c-18,15 -41,18 -62,8 -22,-9 -34,-29 -34,-53l0 -1046c0,-32 26,-59 58,-59 33,0 59,27 59,59l0 920zm-1640 -1395c157,24 200,31 366,152l48 35 69 -95 -47 -35c-210,-153 -252,-145 -501,-187l-83 -14 16 84c77,401 174,552 596,602l50 6 -4 -37c-3,-29 -6,-56 -9,-83l-23 -3c-337,-40 -415,-139 -478,-425zm3929 0c-157,24 -200,31 -366,152l-48 35 -69 -95 47 -35c210,-153 252,-145 501,-187l83 -14 -16 84c-77,401 -174,552 -596,602l-51 6 5 -37c3,-29 6,-56 9,-83l23 -3c337,-40 415,-139 478,-425zm113 -837c-130,47 -214,106 -323,215l-41 42 -84 -83 42 -42c143,-144 256,-214 454,-271l81 -23 -6 84c-10,146 -16,333 -89,463 -81,144 -246,230 -390,297l-53 26 -18 -39c10,-33 18,-65 24,-95 345,-162 378,-251 403,-574zm-782 889c-78,51 -168,116 -203,184 -43,85 -28,213 -16,303l2 14c-40,5 -78,13 -116,24l-3 -22c-50,-378 40,-453 346,-650l71 -45 18 82c48,208 25,355 1,562l-5 49c-40,-4 -79,-7 -118,-8l6 -55c19,-162 38,-287 17,-438zm-540 879c320,126 524,48 739,-188 -171,-26 -358,-40 -505,11 -100,35 -175,97 -234,177zm-171 52c249,-478 676,-402 1130,-322 -333,438 -624,575 -1130,322zm1056 -2404c-121,166 -182,265 -143,499l9 58 -78 13c-15,-13 -30,-26 -45,-40l-2 -12c-50,-297 38,-414 206,-646l42 -57 49 51c190,199 219,354 197,615 -38,21 -74,45 -110,72l-15 -1 6 -59c19,-217 10,-340 -116,-493zm-322 708c-41,80 -80,173 -80,256 1,72 29,143 59,208l25 53 -107 50 -25 -54c-120,-260 -73,-387 58,-634l35 -65 56 48c277,240 361,357 236,722l-18 56 -112 -38 19 -56c32,-94 69,-218 37,-316 -26,-83 -110,-165 -183,-230zm-3396 -124c130,47 214,106 323,215l41 42 84 -83 -42 -42c-143,-144 -256,-214 -454,-271l-81 -23 6 84c10,146 16,333 89,463 81,144 246,230 390,297l53 26 18 -39c-10,-33 -18,-65 -24,-95 -345,-162 -379,-251 -403,-574zm782 889c78,51 168,116 203,184 43,85 28,213 16,303l-2 14c40,5 78,13 116,24l3 -22c50,-378 -40,-453 -346,-650l-71 -45 -18 82c-48,208 -25,355 -1,562l5 49c40,-4 79,-7 118,-8l-6 -55c-19,-162 -38,-287 -17,-438zm540 879c-320,126 -524,48 -739,-188 171,-26 358,-40 505,11 100,35 175,97 234,177zm171 52c-249,-478 -676,-402 -1130,-322 333,438 624,575 1130,322zm-1056 -2404c121,166 182,265 143,499l-10 58 79 13c15,-13 30,-26 45,-40l2 -12c50,-297 -38,-414 -206,-646l-42 -57 -49 51c-190,199 -219,354 -197,615 38,21 74,45 110,72l14 -1 -5 -59c-20,-217 -10,-340 116,-493zm322 708c41,80 80,173 80,256 -1,72 -29,143 -59,208l-25 53 107 50 25 -54c120,-260 73,-387 -58,-634l-35 -65 -56 48c-277,240 -361,357 -237,722l19 56 112 -38 -19 -56c-32,-94 -69,-218 -38,-316 27,-83 111,-165 184,-230zm1318 -377c-241,0 -437,196 -437,437 0,242 196,438 437,438 242,0 438,-196 438,-438 0,-241 -196,-437 -438,-437zm0 -118c-306,0 -555,249 -555,555 0,307 249,556 555,556 307,0 556,-249 556,-556 0,-306 -249,-555 -556,-555zm296 -359l205 -33c141,-22 224,49 246,186l30 195 185 94c127,65 153,171 90,295l-91 176 95 185c65,127 23,228 -101,291l-176 89 -32 205c-23,141 -116,199 -253,176l-195 -31 -147 147c-101,101 -210,93 -307,-6l-140 -140 -205 33c-141,22 -224,-49 -246,-186l-30 -195 -185 -94c-128,-65 -153,-171 -90,-295l91 -176 -95 -185c-65,-127 -23,-228 101,-291l176 -89 32 -205c23,-141 116,-199 253,-176l195 31 147 -147c101,-101 210,-93 307,6l140 140zm-223 -57l182 183 264 -42c76,-12 100,15 111,87l40 255 239 121c68,35 71,71 38,136l-118 229 122 239c35,69 16,100 -49,133l-230 116 -42 265c-12,76 -45,90 -117,78l-255 -41 -189 190c-54,54 -89,46 -141,-6l-182 -183 -264 42c-76,12 -100,-15 -111,-87l-40 -255 -239 -121c-68,-35 -71,-71 -38,-136l118 -230 -122 -238c-35,-69 -17,-100 49,-133l230 -116 42 -265c12,-76 45,-90 117,-78l255 41 189 -190c54,-54 89,-46 141,6z"/>
 </g>
</svg>
