<?xml version="1.0" encoding="UTF-8"?>
<!DOCTYPE svg PUBLIC "-//W3C//DTD SVG 1.1//EN" "http://www.w3.org/Graphics/SVG/1.1/DTD/svg11.dtd">
<!-- Creator: CorelDRAW X7 -->
<svg xmlns="http://www.w3.org/2000/svg" xml:space="preserve" width="33.0336mm" height="33.0336mm" version="1.1" style="shape-rendering:geometricPrecision; text-rendering:geometricPrecision; image-rendering:optimizeQuality; fill-rule:evenodd; clip-rule:evenodd"
viewBox="0 0 220 220"
 xmlns:xlink="http://www.w3.org/1999/xlink">
 <defs>
  <style type="text/css">
   <![CDATA[
    .fil0 {fill:#EF7F1A}
   ]]>
  </style>
 </defs>
 <g id="Layer_x0020_1">
  <metadata id="CorelCorpID_0Corel-Layer"/>
  <path class="fil0" d="M40 79c0,18 12,39 23,52 3,5 7,9 11,14l5 4c9,9 27,21 40,26 11,4 27,8 37,-2l3 -3c5,-5 11,-10 11,-17 0,-5 -2,-8 -4,-11 -3,-2 -5,-5 -8,-7 -3,-3 -5,-5 -8,-8 -4,-5 -10,-7 -17,-3 -3,1 -11,10 -13,12 -1,-2 -3,-2 -5,-4 -13,-8 -22,-18 -30,-30 -1,-1 -1,-2 -2,-4l8 -7c1,-1 2,-2 2,-3 3,-3 4,-4 4,-10 0,-6 -8,-13 -12,-17 -3,-3 -6,-6 -9,-9 -1,-1 -2,-1 -3,-2 -5,-3 -11,-2 -16,2l-11 11c-4,4 -6,9 -6,16zm70 -79c60,0 110,49 110,110 0,60 -50,110 -110,110 -61,0 -110,-50 -110,-110 0,-61 49,-110 110,-110zm0 8c-56,0 -102,46 -102,102 0,56 46,102 102,102 56,0 102,-46 102,-102 0,-56 -46,-102 -102,-102zm40 99c2,0 4,-1 4,-4 0,-4 -3,-11 -4,-14 -4,-8 -11,-15 -19,-19 -2,-1 -4,-2 -7,-3 -3,-1 -9,-3 -11,1 -1,1 -1,2 0,3 1,2 2,2 3,2 2,1 3,1 4,1 7,2 11,5 15,9 3,2 6,7 8,10 3,7 3,9 4,12 0,1 1,2 3,2zm-36 -64c0,2 0,3 1,4 1,1 2,1 3,1 14,3 25,9 35,19 2,2 5,6 7,8 1,2 2,3 3,5l4 8c3,6 3,9 5,15 0,1 0,2 1,2 1,0 1,1 1,1 3,1 6,-2 6,-3 0,-3 -2,-11 -3,-13 -2,-5 -4,-8 -6,-13 -3,-5 -8,-12 -12,-16 -3,-2 -5,-5 -8,-7 -7,-5 -13,-8 -21,-11 -2,-1 -10,-3 -12,-3 -3,0 -4,2 -4,3zm-39 55c0,2 2,6 3,8l2 4c2,3 5,6 8,9 2,3 4,4 5,6 2,2 4,4 6,6 4,3 17,13 21,13 2,0 3,0 4,-1 3,-2 12,-13 15,-13 4,0 5,2 8,5l11 11c3,3 7,6 2,12l-7 7c-10,12 -24,5 -36,0 -3,-1 -4,-2 -7,-3 -1,-1 -1,-1 -2,-2 -2,0 -3,-1 -4,-2 -2,-1 -3,-2 -5,-3 -2,-2 -7,-5 -10,-7 -3,-3 -9,-9 -12,-12 -1,-1 -1,-2 -2,-2 -7,-8 -17,-23 -21,-32 -3,-8 -6,-14 -6,-23 0,-8 6,-13 12,-19 7,-7 9,-4 17,5 2,2 9,8 10,10 4,5 1,7 -3,12l-8 7c-1,1 -1,2 -1,4z"/>
 </g>
</svg>
