<?xml version="1.0" encoding="UTF-8"?>
<!DOCTYPE svg PUBLIC "-//W3C//DTD SVG 1.1//EN" "http://www.w3.org/Graphics/SVG/1.1/DTD/svg11.dtd">
<!-- Creator: CorelDRAW X7 -->
<svg xmlns="http://www.w3.org/2000/svg" xml:space="preserve" width="57.0101mm" height="38.151mm" version="1.1" style="shape-rendering:geometricPrecision; text-rendering:geometricPrecision; image-rendering:optimizeQuality; fill-rule:evenodd; clip-rule:evenodd"
viewBox="0 0 1100 736"
 xmlns:xlink="http://www.w3.org/1999/xlink">
 <defs>
  <style type="text/css">
   <![CDATA[
    .fil0 {fill:#EF7F1A}
   ]]>
  </style>
 </defs>
 <g id="Layer_x0020_1">
  <metadata id="CorelCorpID_0Corel-Layer"/>
  <path class="fil0" d="M554 0c-123,0 -232,58 -301,147l-82 0c-94,0 -171,77 -171,170l0 123c0,94 77,171 171,171l100 0c69,77 170,125 283,125 113,0 214,-48 283,-125l93 0c94,0 170,-77 170,-171l0 -123c0,-93 -76,-170 -170,-170l-75 0c-69,-89 -178,-147 -301,-147zm-52 576l428 0c75,0 136,-61 136,-136l0 -123c0,-74 -61,-136 -136,-136l-237 0c-95,26 -123,98 -123,178 0,71 14,181 -68,217zm384 -229l63 0 0 156 -63 0 0 -156zm-141 4l90 0 0 53 -90 0 0 99 -71 0 0 -99 0 -53 0 -43 0 -53 71 0 103 0 0 53 -103 0 0 43zm173 -78c14,0 26,12 26,27 0,15 -12,27 -26,27 -15,0 -27,-12 -27,-27 0,-15 12,-27 27,-27zm-476 74l63 0 0 156 -63 0 0 -156zm31 -74c15,0 27,12 27,27 0,15 -12,27 -27,27 -15,0 -27,-12 -27,-27 0,-15 12,-27 27,-27zm-365 -18l63 0 26 141 27 -141 24 0 23 0 24 0 26 141 26 -141 64 0 -47 248 -23 0 -40 0 -7 0 -35 -185 -34 185 -8 0 -40 0 -23 0 -46 -248z"/>
 </g>
</svg>
